<svg width="500" height="500" xmlns="http://www.w3.org/2000/svg" version="1.1">
 <g>
  <title>Layer 1</title>
  <ellipse ry="250" rx="250" id="svg_5" cy="250" cx="250" stroke="#000" fill="#000000"/>
  <path id="svg_2" fill="#66300C" d="m139,180c16.5,0 33,0 50,0c15.78095,37.09197 15.78095,37.09197 22.25391,52.46484c0.42954,1.01965 0.85909,2.03929 1.30165,3.08983c2.09764,4.97968 4.19321,9.96023 6.2855,14.94216c0.76904,1.82661 1.53817,3.65319 2.30738,5.47973c0.3462,0.82649 0.6924,1.65297 1.04909,2.5045c1.79402,4.25408 3.68063,8.41431 5.80247,12.51894c2.96072,-6.93648 5.91867,-13.87414 8.875,-20.8125c0.44486,-1.04384 0.88971,-2.08768 1.34805,-3.16315c5.06118,-11.88016 10.10201,-23.76826 15.07773,-35.68451c0.41597,-0.99604 0.83193,-1.99209 1.2605,-3.01832c1.99211,-4.77315 3.98008,-9.54798 5.96362,-14.32469c0.71433,-1.7151 1.42868,-3.43019 2.14307,-5.14527c0.48766,-1.17944 0.48766,-1.17944 0.98518,-2.3827c2.23383,-5.35584 2.23383,-5.35584 3.34685,-6.46886c1.56547,-0.09327 3.13513,-0.11746 4.70337,-0.11353c1.00096,0.00008 2.00192,0.00016 3.03322,0.00023c1.08853,0.00516 2.17705,0.01033 3.29857,0.01564c1.66258,0.00213 1.66258,0.00213 3.35875,0.00429c3.55622,0.00562 7.11238,0.01818 10.66859,0.03087c2.4043,0.00501 4.80859,0.00958 7.21289,0.01367c5.90823,0.01106 11.81641,0.02781 17.72461,0.04883c0,1.65 0,3.3 0,5c-0.81984,0.17016 -1.63969,0.34031 -2.48437,0.51563c-1.07766,0.24234 -2.15532,0.48468 -3.26563,0.73437c-1.06734,0.23203 -2.13469,0.46406 -3.23437,0.70313c-3.35553,1.16487 -4.84237,2.26428 -7.01563,5.04687c-0.88077,2.76867 -1.12839,5.28369 -1.14044,8.17888c-0.00571,0.82549 -0.01142,1.65099 -0.01731,2.50149c-0.00111,0.89721 -0.00223,1.79441 -0.00338,2.7188c-0.00497,0.95173 -0.00993,1.90346 -0.01505,2.88403c-0.0146,3.1491 -0.02142,6.29814 -0.02694,9.44727c-0.00576,2.19233 -0.01152,4.38465 -0.01728,6.57698c-0.0105,4.5991 -0.01635,9.19818 -0.01983,13.79729c-0.00548,5.87988 -0.0295,11.75953 -0.05798,17.63933c-0.01867,4.5306 -0.02383,9.06114 -0.02536,13.59177c-0.00302,2.16683 -0.01102,4.33366 -0.02419,6.50045c-0.01714,3.03937 -0.01515,6.07817 -0.00869,9.11757c-0.00921,0.88708 -0.01842,1.77416 -0.02792,2.68812c0.03761,5.66912 0.56024,11.32457 3.38437,16.35802c4.18867,2.70153 9.1146,3.38933 14,4c0,1.65 0,3.3 0,5c-21.78,0 -43.56,0 -66,0c0,-1.65 0,-3.3 0,-5c0.89203,-0.14695 1.78406,-0.29391 2.70313,-0.44531c1.17046,-0.2243 2.34093,-0.4486 3.54687,-0.67969c1.74023,-0.31324 1.74023,-0.31324 3.51563,-0.63281c4.28661,-1.64631 5.14223,-3.16856 7.23437,-7.24219c0.54989,-3.38596 0.5064,-6.71242 0.4541,-10.13623c0.00059,-1.00549 0.00117,-2.01099 0.00177,-3.04695c-0.00278,-3.31169 -0.03386,-6.62247 -0.06524,-9.93401c-0.00747,-2.3007 -0.01316,-4.60141 -0.01716,-6.90213c-0.01525,-6.0467 -0.05452,-12.09301 -0.09881,-18.13955c-0.04097,-6.17356 -0.0592,-12.34717 -0.07935,-18.52082c-0.04286,-12.10694 -0.1111,-24.21359 -0.19531,-36.32031c-0.43952,1.07243 -0.87904,2.14487 -1.33188,3.2498c-15.66733,38.22504 -15.66733,38.22504 -22.34292,54.27748c-1.7278,4.15535 -3.45215,8.31214 -5.17676,12.46881c-0.51654,1.24485 -0.51654,1.24485 -1.04352,2.51484c-3.40114,8.19885 -6.79217,16.40185 -10.17493,24.6083c-0.61459,1.49073 -1.22953,2.98131 -1.84485,4.47174c-0.8419,2.03957 -1.68248,4.07968 -2.52264,6.11997c-0.70963,1.72162 -0.70963,1.72162 -1.43359,3.47802c-0.76879,1.91431 -1.47656,3.85399 -2.12891,5.81104c-1.98,0 -3.96,0 -6,0c-4.77137,-10.05751 -9.12614,-20.26928 -13.43213,-30.53217c-2.07252,-4.93921 -4.15262,-9.87522 -6.23193,-14.81158c-0.43178,-1.02552 -0.86355,-2.05104 -1.30841,-3.10764c-4.97944,-11.82051 -10.00192,-23.62267 -15.02753,-35.42361c-0.64863,-1.52352 -0.64863,-1.52352 -1.31036,-3.07782c-1.9376,-4.55098 -3.8756,-9.10179 -5.81464,-13.65216c-0.29133,-0.68368 -0.58266,-1.36735 -0.88281,-2.07175c-1.32776,-3.10903 -2.66004,-6.21612 -3.99219,-9.32327c-0.04637,12.39593 -0.0819,24.79185 -0.10362,37.18785c-0.01043,5.75618 -0.02458,11.5123 -0.04726,17.26845c-0.02176,5.5567 -0.03369,11.11335 -0.03887,16.67009c-0.0037,2.11824 -0.0109,4.23647 -0.02171,6.35469c-0.01455,2.97065 -0.01652,5.94106 -0.01559,8.91174c-0.00719,0.87251 -0.01438,1.74501 -0.02179,2.64395c0.01692,5.03007 0.49259,9.2281 2.24884,13.96323c1.86549,1.42983 1.86549,1.42983 4.1875,1.875c1.19496,0.31518 1.19496,0.31518 2.41406,0.63672c3.13476,0.63818 6.21632,1.14976 9.39844,1.48828c0,1.65 0,3.3 0,5c-15.18,0 -30.36,0 -46,0c0,-1.65 0,-3.3 0,-5c5.33333,-1.33333 10.66667,-2.66667 16,-4c0.83506,-2.91854 1.13072,-5.52238 1.14717,-8.5542c0.00716,-0.90845 0.01431,-1.81689 0.02168,-2.75287c0.00269,-0.98921 0.00538,-1.97843 0.00815,-2.99762c0.00657,-1.04754 0.01314,-2.09509 0.01991,-3.17437c0.01971,-3.46532 0.03139,-6.93059 0.04137,-10.39594c0.00408,-1.18286 0.00815,-2.36571 0.01235,-3.58441c0.02085,-6.25507 0.03516,-12.51011 0.04454,-18.7652c0.01109,-6.47007 0.04552,-12.93981 0.08517,-19.40976c0.02609,-4.96875 0.03451,-9.93741 0.03811,-14.90622c0.00488,-2.38589 0.01654,-4.77177 0.03504,-7.15759c0.02424,-3.33266 0.02345,-6.66442 0.01648,-9.99713c0.01281,-0.98922 0.02562,-1.97843 0.03882,-2.99762c0.02112,-5.29457 0.02112,-5.29457 -2.34969,-9.88568c-2.74083,-1.80436 -5.20798,-2.47549 -8.4091,-3.17139c-1.07766,-0.24234 -2.15531,-0.48469 -3.26562,-0.73437c-0.81985,-0.17016 -1.63969,-0.34032 -2.48438,-0.51563c0,-1.65 0,-3.3 0,-5z"/>
  <path id="svg_3" fill="#079500" d="m62,180c22.77,0 45.54,0 69,0c0,1.65 0,3.3 0,5c-0.81984,0.15855 -1.63969,0.31711 -2.48437,0.48047c-1.07766,0.23332 -2.15532,0.46664 -3.26563,0.70703c-1.06734,0.22043 -2.13469,0.44086 -3.23437,0.66797c-3.83551,1.4557 -4.88458,2.63309 -7.01563,6.14453c-0.57702,3.24306 -0.53328,6.43772 -0.49829,9.72461c-0.00552,0.97471 -0.01104,1.94942 -0.01672,2.95367c-0.00932,2.11432 -0.00943,4.22869 -0.00141,6.34301c0.01264,3.35634 0.00133,6.71187 -0.01604,10.06819c-0.02672,5.92652 -0.03229,11.85284 -0.03089,17.77942c0.00222,9.45672 -0.01214,18.9132 -0.05559,28.36982c-0.00977,3.28853 -0.00115,6.57665 0.0087,9.86516c-0.01561,15.57082 -0.50513,31.46106 -11.51476,43.70862c-8.16186,7.55596 -19.75464,10.58566 -30.625,10.5625c-0.78987,-0.00161 -1.57975,-0.00322 -2.39355,-0.00488c-9.60887,-0.20043 -18.56165,-3.03705 -25.47754,-10.00293c-5.315,-5.88856 -6.85545,-10.77524 -6.69532,-18.70703c0.58064,-4.88166 2.90528,-7.48422 6.56641,-10.53516c4.34003,-1.77547 8.27655,-1.96617 12.67969,-0.46875c4.86461,2.42187 6.93762,5.39592 9.07031,10.34375c0.81068,4.86411 -0.61897,7.29133 -3.10156,11.26172c-1.37085,2.65229 -1.30419,4.83044 -0.89844,7.73828c1.79796,2.21063 1.79796,2.21063 4.24219,2.26563c0.86883,-0.00516 1.73765,-0.01032 2.63281,-0.01563c0.86367,0.00516 1.72734,0.01031 2.61719,0.01563c2.82421,-0.29914 4.2398,-0.53852 6.50781,-2.26563c3.46565,-6.20239 3.42686,-11.82621 3.38818,-18.82275c0.00526,-1.17318 0.01052,-2.34635 0.01593,-3.55507c0.01318,-3.86639 0.00448,-7.73236 -0.00567,-11.59874c0.00067,-2.69087 0.00493,-5.38174 0.0087,-8.0726c0.00544,-5.63373 -0.00171,-11.26733 -0.01603,-16.90104c-0.01634,-6.507 -0.01102,-13.01373 0.00548,-19.52073c0.01363,-5.5968 0.01553,-11.19352 0.00769,-16.79033c-0.00467,-3.33852 -0.00414,-6.67681 0.00461,-10.01534c0.00761,-3.72001 -0.00399,-7.43947 -0.02071,-11.15944c0.00608,-1.10246 0.01215,-2.20493 0.01841,-3.3408c0.03104,-7.13331 0.03104,-7.13331 -3.40659,-13.22316c-3.14598,-2.17483 -6.51421,-2.55651 -10.25,-3.125c-1.61648,-0.25137 -1.61648,-0.25137 -3.26562,-0.50781c-1.22977,-0.18176 -1.22977,-0.18176 -2.48438,-0.36719c0,-1.65 0,-3.3 0,-5z"/>
  <path id="svg_4" fill="#66300C" d="m428.40796,184.01807c4.34788,1.77266 7.90834,2.60757 12.59204,1.98193c1.68146,-1.69764 1.68146,-1.69764 2.5625,-4c1.00391,-2.25 1.00391,-2.25 2.4375,-4c1.98,0 3.96,0 6,0c0,15.18 0,30.36 0,46c-1.65,0 -3.3,0 -5,0c-0.44988,-0.8482 -0.89976,-1.6964 -1.36328,-2.57031c-6.8764,-12.66504 -14.65346,-25.35734 -27.63672,-32.42969c-0.7657,-0.42925 -1.53141,-0.85851 -2.32031,-1.30078c-7.86843,-3.7784 -17.44674,-4.51966 -25.72266,-1.64062c-2.41546,1.20238 -4.67439,2.5066 -6.95703,3.9414c-0.70769,0.30164 -1.41539,0.60328 -2.14453,0.91407c-2.38649,1.39672 -2.77836,2.55517 -3.85547,5.08593c-0.52336,0.93071 -1.04672,1.86141 -1.58594,2.82032c-12.12892,22.40407 -13.63191,52.83477 -6.84326,77.23095c3.39823,11.15688 7.97595,20.8632 18.33936,26.97608c9.83714,4.57841 22.19795,4.56448 32.52734,1.41015c9.44258,-3.72493 17.033,-9.5069 24.37109,-16.42187c1.98328,-1.82419 4.00641,-3.44283 6.19141,-5.01563c1.65,1.32 3.3,2.64 5,4c-5.3227,11.75761 -17.50113,20.0786 -29.07812,24.90235c-18.27236,6.86434 -37.40657,7.67564 -55.67188,-0.15235c-18.02644,-8.99986 -30.44643,-21.49882 -37.25,-40.65625c-5.88697,-18.21281 -4.28135,-38.80791 3.50391,-56.22656c8.83478,-16.93142 23.08946,-29.09173 40.99609,-35.30469c17.30076,-5.41863 34.5263,-2.44945 50.90796,4.45557z"/>
  <ellipse fill="#fff" cx="155.99999" cy="182.33332" id="svg_7" stroke="#000"/>
 </g>

</svg>